<svg width="121" height="110" viewBox="0 0 121 110" fill="none" xmlns="http://www.w3.org/2000/svg">
<path d="M72.393 79.4564L42.4566 70.8939C40.9166 70.5083 39.4674 69.7863 38.1945 68.7702C36.9215 67.7542 35.8506 66.4648 35.0448 64.9781C34.2391 63.4914 33.7148 61.8374 33.5029 60.1138C33.291 58.3901 33.3958 56.6317 33.8111 54.9422L44.7287 14.4718C45.7602 11.0737 47.9422 8.22593 50.8167 6.52627C53.6912 4.82662 57.0347 4.40723 60.1454 5.35612L90.0793 13.9477C91.6253 14.3271 93.0816 15.0445 94.362 16.0577C95.6425 17.0709 96.7213 18.3593 97.5345 19.8469C98.3478 21.3345 98.8792 22.991 99.0972 24.7187C99.3153 26.4465 99.2156 28.2103 98.8041 29.9061L87.8071 70.3698C86.7817 73.7707 84.5996 76.6206 81.7228 78.3165C78.8459 80.0124 75.4999 80.4212 72.393 79.4564V79.4564Z" fill="#A180FF"/>
<path d="M57.6065 12.4453H56.3388C50.3376 12.4453 45.4727 17.8179 45.4727 24.4453C45.4727 31.0727 50.3376 36.4453 56.3388 36.4453H57.6065C63.6077 36.4453 68.4727 31.0727 68.4727 24.4453C68.4727 17.8179 63.6077 12.4453 57.6065 12.4453Z" fill="#FF84B0"/>
<path d="M65.1761 92.3646L36.4664 99.8523C35.0162 100.282 33.4773 100.393 31.9404 100.176C30.4036 99.9598 28.9 99.4211 27.5182 98.5921C26.1365 97.763 24.9046 96.6603 23.8952 95.349C22.8858 94.0377 22.1194 92.5443 21.6411 90.9569L10.979 52.4637C10.1779 49.176 10.5875 45.782 12.1217 42.9942C13.6559 40.2064 16.1955 38.2416 19.2074 37.512L47.9293 30.0495C49.3815 29.6112 50.9239 29.4938 52.4656 29.7043C54.0072 29.9148 55.5167 30.4489 56.9051 31.275C58.2934 32.1011 59.5323 33.2025 60.5487 34.5142C61.5652 35.8258 62.3384 37.3211 62.8229 38.9119L73.4167 77.4381C74.224 80.7251 73.8155 84.1209 72.2775 86.9067C70.7395 89.6926 68.1927 91.65 65.1761 92.3646V92.3646Z" fill="#6149E7"/>
<path d="M102.369 6.05999C102.938 5.12717 104.377 5.61677 104.259 6.70325L103.267 15.8574C103.196 16.5142 103.757 17.0652 104.412 16.9827L113.548 15.8329C114.632 15.6964 115.147 17.1267 114.224 17.7121L106.449 22.6442C105.891 22.9981 105.809 23.7801 106.283 24.2411L112.878 30.6667C113.66 31.4293 112.863 32.7233 111.83 32.3667L103.126 29.3629C102.501 29.1474 101.839 29.5714 101.774 30.2288L100.862 39.3912C100.754 40.4786 99.2449 40.6619 98.8795 39.6319L95.8012 30.9541C95.5804 30.3314 94.8361 30.0782 94.2813 30.4369L86.5493 35.4367C85.6317 36.0301 84.5476 34.9646 85.1251 34.0368L89.9904 26.2195C90.3395 25.6586 90.0735 24.9189 89.4471 24.7088L80.7173 21.781C79.6812 21.4335 79.8383 19.9216 80.9237 19.7946L90.069 18.7245C90.7252 18.6478 91.1377 17.9785 90.9114 17.3578L87.7575 8.70713C87.3832 7.6804 88.6632 6.86062 89.4392 7.63006L95.9778 14.1129C96.447 14.5781 97.2274 14.4833 97.5716 13.9194L102.369 6.05999Z" fill="#00E4C9"/>
<path fill-rule="evenodd" clip-rule="evenodd" d="M61.557 80.5364C54.8952 78.8115 49.5353 74.2095 46.6096 70.5132L49.3206 68.3674C51.9297 71.6637 56.6958 75.7063 62.4236 77.1893C68.0013 78.6334 74.7002 77.7145 81.5775 70.7596L84.036 73.1906C76.3235 80.9901 68.369 82.3001 61.557 80.5364Z" fill="#B8EFE6"/>
<path d="M76.1164 51.9739C77.1734 53.8646 75.7873 56.1904 73.6214 56.1604L58.6985 55.9538C56.5327 55.9238 55.2115 53.5605 56.3204 51.6998L63.9608 38.8795C65.0697 37.0188 67.777 37.0563 68.8339 38.9469L76.1164 51.9739Z" fill="#FFD441"/>
</svg>
