<svg width="88" height="106" viewBox="0 0 88 106" fill="none" xmlns="http://www.w3.org/2000/svg">
<path d="M66.1351 88.4656L37.6302 95.8997C36.1903 96.3269 34.6624 96.4363 33.1365 96.2214C31.6107 96.0065 30.1178 95.4717 28.7459 94.6486C27.374 93.8254 26.1509 92.7306 25.1488 91.4286C24.1466 90.1267 23.3856 88.6439 22.9107 87.0679L12.3247 48.8493C11.5293 45.5851 11.936 42.2153 13.4592 39.4474C14.9825 36.6795 17.504 34.7287 20.4944 34.0044L49.0113 26.5951C50.4531 26.1599 51.9846 26.0434 53.5152 26.2524C55.0458 26.4613 56.5446 26.9916 57.923 27.8118C59.3014 28.632 60.5316 29.7256 61.5407 31.0279C62.5499 32.3302 63.3176 33.8148 63.7987 35.3942L74.3168 73.6455C75.1184 76.9091 74.7128 80.2806 73.1857 83.0466C71.6587 85.8126 69.1301 87.756 66.1351 88.4656V88.4656Z" fill="#6149E7"/>
<path d="M69.5408 0H68.161C61.6297 0 56.335 5.53353 56.335 12.3595C56.335 19.1855 61.6297 24.719 68.161 24.719H69.5408C76.0721 24.719 81.3668 19.1855 81.3668 12.3595C81.3668 5.53353 76.0721 0 69.5408 0Z" fill="#FF84B0"/>
<path d="M26.5848 7.74884C27.2578 6.64611 28.9589 7.22489 28.8198 8.50927L27.8692 17.2831C27.7851 18.0595 28.4479 18.711 29.2228 18.6135L37.9789 17.5114C39.2607 17.3501 39.8688 19.0409 38.7778 19.7329L31.3255 24.4601C30.666 24.8784 30.57 25.8028 31.1294 26.3479L37.4503 32.5065C38.3756 33.408 37.4328 34.9377 36.2116 34.5162L27.8693 31.6371C27.131 31.3824 26.3484 31.8836 26.2711 32.6608L25.3971 41.4425C25.2692 42.7281 23.4854 42.9447 23.0535 41.7271L20.1031 33.4098C19.842 32.6737 18.9622 32.3743 18.3063 32.7984L10.8956 37.5905C9.81073 38.292 8.52923 37.0324 9.21187 35.9356L13.8751 28.4431C14.2878 27.7801 13.9733 26.9055 13.2328 26.6572L4.86568 23.851C3.64083 23.4402 3.82658 21.653 5.10972 21.5029L13.8751 20.4772C14.6508 20.3864 15.1384 19.5953 14.8709 18.8615L11.848 10.5702C11.4055 9.35649 12.9187 8.38739 13.8361 9.29698L20.103 15.5105C20.6577 16.0604 21.5802 15.9484 21.9871 15.2817L26.5848 7.74884Z" fill="#01F1D5"/>
<path fill-rule="evenodd" clip-rule="evenodd" d="M61.555 77.1192C54.5898 75.3158 48.9858 70.5042 45.9269 66.6396L48.7613 64.3961C51.4893 67.8425 56.4724 72.0692 62.461 73.6197C68.2927 75.1296 75.2967 74.1688 82.4872 66.8972L85.0576 69.4389C76.9939 77.5936 68.6772 78.9633 61.555 77.1192Z" fill="#8AFFEC"/>
<path d="M82.6251 52.3027C83.8745 54.5378 82.2359 57.2873 79.6756 57.2518L65.4045 57.0542C62.8442 57.0188 61.2823 54.225 62.5932 52.0254L69.8999 39.7651C71.2108 37.5655 74.4112 37.6098 75.6607 39.8449L82.6251 52.3027Z" fill="#FFD441"/>
</svg>
