<svg width="221" height="38" viewBox="0 0 221 38" fill="none" xmlns="http://www.w3.org/2000/svg">
<path d="M0 35.5399H4.78801V20.8797V15.9436V16.0423V5.87395H20.8797L22.015 0.987218H0V35.5399Z" fill="#FFFDEC"/>
<path d="M27.6865 35.5399L35.2387 2.07316L30.5494 1.03658L22.9972 34.5033L27.6865 35.5399Z" fill="#FFFDEC"/>
<path d="M45.4587 36.2309C48.0749 36.2309 50.3948 35.3918 52.3199 33.911V35.5399H57.0585V15.9436H52.3199C50.3948 14.4628 48.0749 13.6236 45.4587 13.6236C39.338 13.6236 34.2538 18.7078 34.2538 24.9273C34.2538 31.1468 39.338 36.2309 45.4587 36.2309ZM45.4587 31.5416C41.9047 31.5416 38.9431 28.58 38.9431 24.9273C38.9431 21.2252 41.9047 18.2142 45.4587 18.2142C49.2102 18.2142 52.1225 21.2252 52.1225 24.9273C52.1225 28.58 49.2102 31.5416 45.4587 31.5416Z" fill="#FFFDEC"/>
<path d="M72.5837 30.1595C71.8433 32.5782 65.3277 32.5782 64.9821 28.1357H59.9967C59.7992 38.5015 77.7666 38.9951 77.7666 29.6659C77.7666 20.9784 65.3277 22.8048 65.3277 19.8925C65.3277 17.8687 71.3497 17.1776 72.5344 20.6822L76.9768 18.8559C76.1871 16.6346 73.9658 14.0185 69.2765 13.6236C64.3898 13.2287 60.3422 15.7461 60.3422 20.0899C60.3422 28.3332 74.0152 25.5196 72.5837 30.1595Z" fill="#FFFDEC"/>
<path d="M81.7629 35.5399H86.6003C93.3134 24.3843 95.7321 20.0405 96.9167 20.0405C97.8546 20.0405 97.6572 20.6822 97.6572 35.5399H102.692C102.692 18.3623 103.383 13.3768 97.5091 13.7223C93.2147 13.9691 90.253 19.8431 86.6003 25.8158V0.937858H81.7136L81.7629 35.5399Z" fill="#FFFDEC"/>
<path d="M124.84 33.911C132.936 39.8836 144.437 35.4905 144.437 25.9145C144.437 24.1869 144.042 22.3111 143.055 20.3861C145.177 17.7699 146.115 14.907 146.115 12.3896C146.115 4.2944 137.97 -4.76837e-07 129.678 2.96166L130.122 1.1353L125.235 0L117.535 34.5033L122.323 35.5892L124.84 24.4337C128.888 26.7043 135.009 26.2107 139.007 23.792C140.29 28.1851 137.625 31.6404 133.232 31.6404C130.319 31.6404 127.851 29.9127 127.753 29.9127L126.321 31.9365L124.84 33.911ZM139.994 15.8942L139.846 15.7955C137.082 12.8832 132.146 11.2049 127.703 11.6985L128.345 8.83561C133.627 5.23226 141.228 6.36756 141.228 12.0441C141.228 13.1794 140.833 14.5121 139.994 15.8942ZM136.391 19.4482C133.281 21.472 126.321 21.472 126.321 18.461C126.321 15.1538 133.429 16.4372 136.391 19.4482Z" fill="#FFFDEC"/>
<path d="M158.192 11.353C160.71 11.353 162.783 9.27986 162.783 6.76245C162.783 4.24504 160.71 2.17188 158.192 2.17188C155.675 2.17188 153.552 4.24504 153.552 6.76245C153.552 9.27986 155.675 11.353 158.192 11.353ZM148.073 36.379C148.073 36.379 153.256 33.5161 156.267 27.7409C156.267 27.7409 157.501 32.6769 160.759 35.1944L164.115 31.0974C164.115 31.0974 160.364 28.2838 160.364 18.5104C160.364 17.227 160.413 15.7955 160.562 14.2653H155.724C155.724 14.2653 154.638 26.26 145.112 32.4795L148.073 36.379Z" fill="#FFFDEC"/>
<path d="M170.552 35.5399L170.848 34.2565C177.117 35.7373 183.83 34.3552 188.223 29.5672C193.949 23.2984 193.406 13.2287 185.459 12.7845C181.954 12.5377 178.104 14.6602 174.352 18.6584L178.104 2.07316L173.365 0.987218L165.862 34.5033L170.552 35.5399ZM184.768 26.4081C181.51 29.9621 177.117 30.7025 172.131 29.7646C175.587 23.792 180.917 17.1776 185.163 17.4244C188.815 17.7699 187.779 23.1009 184.768 26.4081Z" fill="#FFFDEC"/>
<path d="M196.705 35.5399L204.258 2.07316L199.568 1.03658L192.016 34.5033L196.705 35.5399Z" fill="#FFFDEC"/>
<path d="M209.295 34.4046C211.911 36.4777 215.86 37.5143 218.821 37.0701L218.525 32.4795C216.946 32.5782 215.563 32.3314 214.28 31.7884C221.635 27.1485 222.968 17.5231 217.587 14.6108C209.097 10.0203 200.558 21.2252 205.987 30.5051C204.309 31.0974 202.976 31.2948 202.285 31.4429L203.569 36.1322C204.902 35.8854 207.024 35.3918 209.295 34.4046ZM210.43 28.58C207.32 24.5817 209.591 18.2635 213.638 18.2635C215.169 18.2635 216.156 19.4482 216.156 20.8797C216.156 23.6933 213.441 27.2966 210.43 28.58Z" fill="#FFFDEC"/>
<g filter="url(#filter0_d_34_853)">
<path d="M19.2844 16.2406C20.5038 16.6869 20.783 18.2858 19.7868 19.1188L12.9231 24.8581C11.927 25.6911 10.4027 25.1334 10.1794 23.8542L8.64079 15.0404C8.41749 13.7612 9.66268 12.72 10.8821 13.1662L19.2844 16.2406Z" fill="#00E4C9"/>
</g>
<g filter="url(#filter1_d_34_853)">
<circle cx="158.345" cy="6.7238" r="5.0695" fill="#FF84B0"/>
</g>
<defs>
<filter id="filter0_d_34_853" x="4.61462" y="13.0612" width="19.7775" height="20.1914" filterUnits="userSpaceOnUse" color-interpolation-filters="sRGB">
<feFlood flood-opacity="0" result="BackgroundImageFix"/>
<feColorMatrix in="SourceAlpha" type="matrix" values="0 0 0 0 0 0 0 0 0 0 0 0 0 0 0 0 0 0 127 0" result="hardAlpha"/>
<feOffset dy="4"/>
<feGaussianBlur stdDeviation="2"/>
<feComposite in2="hardAlpha" operator="out"/>
<feColorMatrix type="matrix" values="0 0 0 0 0 0 0 0 0 0 0 0 0 0 0 0 0 0 0.25 0"/>
<feBlend mode="normal" in2="BackgroundImageFix" result="effect1_dropShadow_34_853"/>
<feBlend mode="normal" in="SourceGraphic" in2="effect1_dropShadow_34_853" result="shape"/>
</filter>
<filter id="filter1_d_34_853" x="149.275" y="1.6543" width="18.139" height="18.139" filterUnits="userSpaceOnUse" color-interpolation-filters="sRGB">
<feFlood flood-opacity="0" result="BackgroundImageFix"/>
<feColorMatrix in="SourceAlpha" type="matrix" values="0 0 0 0 0 0 0 0 0 0 0 0 0 0 0 0 0 0 127 0" result="hardAlpha"/>
<feOffset dy="4"/>
<feGaussianBlur stdDeviation="2"/>
<feComposite in2="hardAlpha" operator="out"/>
<feColorMatrix type="matrix" values="0 0 0 0 0 0 0 0 0 0 0 0 0 0 0 0 0 0 0.25 0"/>
<feBlend mode="normal" in2="BackgroundImageFix" result="effect1_dropShadow_34_853"/>
<feBlend mode="normal" in="SourceGraphic" in2="effect1_dropShadow_34_853" result="shape"/>
</filter>
</defs>
</svg>
